<?xml version="1.0"?><svg width="640" height="480" xmlns="http://www.w3.org/2000/svg">
 <title>silhouette</title>
 <g>
  <title>Layer 1</title>
  <path fill="black" fill-rule="evenodd" stroke="black" stroke-width="0.036" stroke-miterlimit="10" id="path5" d="m217.854996,104.266998c2.231003,-1.475998 4.355011,-4.355995 6.227997,-8.928001c1.872009,-4.715996 4.104004,-12.239998 5.040009,-18.251999c0.720001,-6.119995 -1.548004,-11.807999 0,-17.495998c1.475998,-5.688 3.707993,-9.503998 9.324005,-16.307999c5.651001,-6.948002 16.307999,-18 24.478989,-24.84c8.063995,-7.02 15.804993,-13.428001 23.652008,-16.308001c7.847992,-2.808 19.799988,-2.556 22.932007,-0.792c2.880005,1.656 -2.088013,5.112 -5.040009,10.511999c-3.059998,5.4 -7.70401,11.448 -12.815002,21.743999c-5.220001,10.296001 -8.855988,25.128002 -17.855988,39.204002c-9.144012,14.003998 -20.916016,28.260002 -36.144012,43.883995l0,0l0,0c7.992004,-2.303993 15.876007,-7.307999 24.084015,-15.155998c8.099976,-7.991997 16.127991,-23.003998 24.478973,-31.823997c8.353027,-8.892002 17.279999,-14.832001 25.236023,-20.591999c7.811981,-5.868 13.391998,-7.056004 21.743988,-13.968002c8.315002,-7.091999 21.85199,-25.308 27.972015,-27.575999c5.867981,-2.196 9.287994,3.708 7.73999,14.363999c-1.764008,10.656 -8.279999,34.74 -17.063995,48.924002c-8.928009,13.968002 -22.067017,25.344002 -34.955994,34.559998c-12.888,9.144005 -30.924011,13.751999 -41.184021,20.195999c-10.29599,6.372002 -16.667999,12.276009 -19.799988,17.855995l0,0l0.791992,4.284012l0,0c7.127991,0.179993 12.131989,1.475998 15.156006,3.888c2.987,2.375992 2.087982,5.543991 2.699005,10.475998c0.503998,4.860001 0.828003,14.18399 0.395996,18.647995c-0.468018,4.464005 -1.764008,6.876007 -3.492004,7.776001l0,0c2.052002,-0.972 3.996002,-1.367996 5.437012,-1.188004c1.402985,0.072006 2.698975,0.720001 3.490997,1.944l0,0c3.023987,-7.524002 5.687988,-13.643997 8.136993,-18.647995c2.376007,-5.112 3.059998,-11.772003 6.227997,-11.231995c3.131989,0.612 7.596008,10.007996 12.420013,14.723999c4.715973,4.5 14.112,7.955994 15.551971,12.455994c1.261017,4.427994 -1.33197,9.216003 -7.774994,14.363998l0,0c3.563019,-0.720001 7.270996,-0.503998 11.268005,0.647995c3.996002,1.188004 7.992004,3.168015 12.420013,6.228012l0,0c-4.212006,0.108002 -7.70401,0.575989 -10.476013,1.547989c-2.843994,0.900009 -4.824005,2.195999 -6.229004,3.888l0,0c7.740021,3.779999 13.860016,7.272003 19.044006,10.476013c5.075989,3.095993 10.260986,5.255997 11.231995,8.567993c0.720001,3.167999 -2.411987,5.220001 -6.191986,10.871994c-3.85202,5.652008 -9.106995,13.139999 -16.308014,22.896011l0,0c1.656006,1.007996 3.671997,2.59198 6.192017,5.040009c2.446991,2.375977 5.255981,5.435974 8.566986,9.323975l0,0c4.429016,-1.187988 8.389008,-0.791992 12.024017,1.188019c3.599976,1.90799 6.839996,5.399994 9.720001,10.47699l0,0c7.127991,-7.631989 14.363983,-14.399994 22.140991,-20.59201c7.667999,-6.263977 16.703003,-13.643982 24.048004,-16.307983c7.307983,-2.736008 13.319,-3.384003 19.438995,0.395996c6.048004,3.85199 13.751984,15.264008 16.30899,22.140015c2.268005,6.695984 0.791992,12.276001 -2.341003,17.85498c-3.274994,5.509003 -8.712006,10.513 -16.703003,15.156006l0,0c0.826996,3.384003 2.304016,6.480011 4.28302,9.684998c1.97998,3.059998 4.608002,6.084015 7.73999,8.928009l0,0c-8.31601,3.23999 -16.920013,6.083984 -26.388,8.531982c-9.575989,2.231018 -21.81601,3.527008 -29.915985,5.831024c-8.064026,2.376984 -14.14801,5.004974 -18.252014,8.172974l0,0l0,43.09201l0,0c5.471985,2.123993 9.647003,5.220001 13.212006,9.720001c3.347992,4.428009 8.208008,9.720001 7.380005,16.70401c-0.937012,6.947998 -6.048004,20.556 -12.420013,24.444c-6.480011,3.635986 -19.691986,1.043976 -26.027985,-1.944c-6.40802,-3.20401 -10.835999,-10.26001 -12.02301,-16.308014c-1.225006,-6.083984 0.647003,-14.399994 4.644012,-19.800995c3.923981,-5.436005 10.043976,-9.756012 18.64798,-12.815002l0,0l-0.395996,-38.447998l0,0c-1.26001,0.503998 -4.104004,2.303986 -8.532013,5.832001c-4.5,3.455994 -10.583984,8.243988 -18.251984,14.76001l0,0c0.036011,2.520996 0.684998,5.760986 1.944,9.720978c1.26001,3.924011 3.023987,8.531006 5.436005,13.968018l0,0c-6.983002,2.664001 -12.455994,5.075989 -16.703003,7.380005c-4.213013,2.267975 -7.057007,4.283997 -8.532013,6.190979l0,0l3.096008,14.005005l0,0c-7.884003,1.619995 -15.552002,2.987 -23.291992,4.248016c-7.812012,1.29599 -15.300018,2.158997 -22.895996,3.131989l0,0c-1.47702,3.420013 -2.520996,7.631989 -3.528015,12.778992c-0.936981,5.076019 0.756012,12.563995 -2.303986,17.893005c-3.276001,5.147003 -12.925003,9.252014 -16.70401,13.571991c-3.852997,4.28302 -1.908005,7.775024 -5.832001,12.420013c-4.067993,4.536011 -14.184998,9.395996 -17.856003,15.154999c-3.707993,5.83197 -3.85199,12.455994 -3.888,19.044006c0,6.372009 1.296005,13.5 3.492004,19.008972c2.052002,5.363037 4.104004,9.216003 8.927994,13.212036c4.751999,3.888 15.012009,6.552002 19.800003,10.079956c4.78801,3.420044 8.71199,8.676025 8.568008,10.512024c-0.395996,1.692017 -3.852997,1.692017 -10.512009,0l0,0c-3.384995,1.90802 -6.479996,2.807983 -9.287994,2.700012c-2.880997,-0.14502 -5.473007,-1.260986 -7.776001,-3.492004l0,0c-2.736008,0.612 -4.932007,0.791992 -6.984009,0.395996c-2.051987,-0.432007 -3.742996,-1.296021 -5.074997,-2.734985l0,0c-2.591995,1.476013 -5.436996,1.656006 -8.531998,0.395996c-3.203995,-1.367004 -7.487991,-4.283997 -10.080002,-7.775024c-2.627991,-3.527954 -3.923996,-9.972961 -5.435989,-12.815979c-1.656006,-2.880005 -2.448013,1.26001 -3.889008,-4.247986c-1.584,-5.616028 -3.238998,-26.244019 -4.679993,-29.124023c-1.404007,-2.880005 -2.520004,5.580017 -3.492004,11.627991c-0.936005,6.048035 -1.188004,17.963989 -2.304001,24.083984c-1.296005,5.832031 -1.835999,8.244019 -5.076004,11.269043c-3.455994,3.02301 -10.835999,5.544006 -14.363998,6.588013c-3.490997,0.828003 -5.507996,0.575989 -6.190994,-1.152039l0,0c-2.195999,2.627991 -5.221008,4.212036 -8.929001,5.040039c-3.852005,0.755981 -8.243011,0.575989 -13.60701,-0.396057l0,0c-6.587997,0.504028 -10.943993,0.684021 -13.211998,0.396057c-2.268997,-0.288025 -2.447998,-0.936035 -0.395996,-1.944031l0,0c-4.139999,-1.26001 -6.154999,-2.627991 -6.191002,-4.247009c-0.144997,-1.619995 3.275002,-3.348999 5.832001,-5.472961c2.556,-2.268005 5.614998,-6.048035 9.322998,-7.740051c3.673004,-1.727966 8.460007,0.360046 12.419998,-2.339966c3.853012,-2.880005 7.992004,-6.190979 10.477005,-14.364014c2.339996,-8.388 3.636002,-19.763977 3.888,-34.954987l0,0c-6.876007,-4.787994 -12.132004,-9.21701 -15.912003,-13.968994c-3.778992,-4.788025 -5.938995,-9.216003 -6.623993,-13.968018l0,0c-8.460007,-6.768005 -13.896004,-11.807983 -16.704002,-15.552002c-2.880005,-3.779999 1.655998,-3.23999 0,-6.587982c-1.691002,-3.601013 -8.243004,-8.460022 -10.079002,-13.608002c-1.872002,-5.112 -2.305,-10.548004 -1.152,-16.70401l0,0c-11.232002,-5.328003 -22.571999,-10.223999 -34.560997,-14.832001c-12.060001,-4.716003 -29.412003,-9.540009 -36.900002,-12.815002c-7.416002,-3.20401 -6.624002,-3.924011 -7.776001,-6.588013c-1.368,-2.915985 -2.34,-3.096985 0,-10.115997c2.34,-7.164001 7.056,-18.144989 14.003998,-31.823975c6.876003,-13.788025 20.053001,-36.792023 27.181,-49.716003c6.946999,-12.924011 9.828003,-15.696014 14.760002,-27.072021c4.823997,-11.483978 9.612,-24.983994 14.363998,-41.18399l0,0l-8.568001,4.680008l0,0c-2.411995,3.131989 -3.959999,6.444 -5.040001,10.080002c-1.115997,3.599991 -1.367996,7.488007 -1.152,11.664001l0,0c-9.070999,-5.832016 -18.683998,-9.540009 -29.123997,-11.268005c-10.548,-1.764008 -21.492001,-1.548004 -33.407999,0.791992l0,0l0.396,-17.496002l0,0c-4.176001,0.180008 -7.920001,-0.467987 -11.664001,-1.944c-3.852,-1.475998 -10.584,-1.763992 -10.476,-6.983994c0.072,-5.436005 4.572,-14.363998 11.268,-24.839996c6.731999,-10.548004 16.164001,-22.932007 28.728002,-37.692001l0,0c-3.312,-0.432007 -5.544003,-1.548004 -6.984001,-3.492004c-1.440001,-1.979996 -1.908001,-4.645004 -1.548,-8.136002l0,0c-3.384001,-1.188004 -7.308001,-0.720001 -12.059999,1.548004c-4.752001,2.195999 -10.188001,6.084 -16.308001,11.664001l0,0c-0.756,-2.520004 -1.008,-6.876007 -0.756,-13.212006c0.252,-6.479996 0.972,-14.580002 2.304,-24.839996l0,0c0.468,4.679993 3.924,8.604004 10.512001,11.628006c6.588,3.095993 15.984,5.112 28.727998,6.587997l0,0c-0.179996,-2.59201 0.252003,-4.356003 1.152,-5.436005c0.864002,-1.115997 2.34,-1.548004 4.284,-1.151993l0,0c-0.575001,-2.340012 -0.106998,-3.888 1.549,-4.644012c1.584,-0.791992 4.355,-0.791992 8.172001,0l0,0c2.052002,-2.304001 4.067001,-3.419998 6.190998,-3.491989c2.124001,-0.108002 4.068001,0.972 6.229004,3.095993l0,0c1.978996,-1.763992 3.995995,-2.160004 6.191002,-1.188004c2.195999,0.972 5.651993,4.608002 6.623993,7.020004c0.828003,2.376007 0.360001,4.572006 -1.547997,6.984009l0,0l43.487999,2.699997l0,0c-0.288002,-4.068008 0.431999,-7.596008 2.304008,-10.872009c1.764999,-3.23999 2.951996,-4.967987 8.567993,-8.531998c5.615997,-3.671997 13.716003,-8.028 24.839996,-13.211998l0,0c0.432007,-6.912003 2.844009,-11.124001 7.380005,-13.176003c4.5,-2.051994 10.871994,-1.619995 19.403992,1.152l0,0c6.768005,-3.708 12.600006,-5.255997 17.496002,-5.039993c4.893005,0.245995 8.637009,2.477997 11.625,6.689995l0,0zm-116.495995,49.608002l24.875999,0.395996l0.755997,6.192001l0,0c-3.923996,2.447998 -6.983994,5.112 -9.323997,8.531998c-2.483002,3.312012 -3.888,6.192001 -4.643997,11.268005c-0.756004,5.003998 -0.576004,11.123993 0.395996,18.647995l0,0c-4.535995,-6.623993 -8.062996,-12.707993 -11.267998,-18.647995c-3.061005,-5.975998 -5.652,-11.412003 -7.379997,-16.703995l0,0c3.095993,-1.044006 5.039993,-2.195999 6.227997,-3.852005c1.008003,-1.656006 1.261002,-3.600006 0.360001,-5.832001l0,0zm-7.380005,0c0.756004,2.843994 0.504005,4.787994 -0.755997,5.832001c-1.367996,0.972 -3.600998,1.188004 -6.984001,0.360001l0,0l-2.736,-7.380005l0,0c3.492004,0.395996 6.984001,0.792007 10.475998,1.188004l0,0zm-57.059998,-3.888l10.477001,0.755997l0.792,4.680008l-3.889,2.339996l0,0c-2.411999,-0.251999 -4.175999,-1.080002 -5.436001,-2.339996c-1.259998,-1.332001 -1.907997,-3.096008 -1.944,-5.436005l0,0zm259.776009,135.324005c0.610992,3.023987 1.90799,5.220001 3.888,6.984009c1.90799,1.727997 4.5,2.627991 7.776001,3.095978l0,0l4.247986,4.680023l0,0c-1.872009,2.123993 -1.872009,4.968994 0,8.531982c1.764008,3.601013 5.436005,7.776001 10.872009,12.81601l0,0l-15.912018,7.774994l0,0c-2.411987,-5.507996 -4.392975,-11.627991 -6.228973,-19.044006c-1.835022,-7.450989 -3.383026,-15.550995 -4.643005,-24.838989l0,0z"/>
  <path fill-rule="evenodd" stroke="black" stroke-width="0.036" stroke-miterlimit="10" id="path9" d="m188.731003,143.578995c-1.367996,-0.360001 -4.212006,-4.427994 -4.645004,-8.171997c-0.468002,-3.815994 0.360001,-10.187996 1.944,-13.967995c1.512009,-3.852005 3.888,-7.020004 6.984009,-8.532005c3.059998,-1.619995 6.730988,-2.987999 10.871994,-0.792c3.923996,2.124001 9.395996,9.576004 12.815002,13.608002c3.419998,3.924004 7.776001,8.963997 7.37999,9.683998c-0.539993,0.576004 -9.070999,-6.947998 -10.475998,-6.192001c-1.547989,0.755997 1.979004,6.516006 1.548004,10.475998c-0.576004,3.852005 -3.203995,12.348007 -4.283997,12.419998c-1.008011,-0.179993 -0.684006,-10.979996 -1.943008,-12.815994c-1.47699,-1.908005 -3.815994,2.304001 -6.588989,1.944c-2.916,-0.395996 -8.208008,-4.679993 -10.476013,-4.248001c-2.300995,0.432007 -1.905991,6.695999 -3.12999,6.587997l0,0z"/>
  <path fill-rule="evenodd" stroke="black" stroke-width="0.036" stroke-miterlimit="10" id="path13" d="m151.472,141.634995c0.395996,-3.563995 1.548004,-6.371994 3.059998,-8.567993c1.475998,-2.231995 3.384003,-2.951996 6.264008,-4.643997c2.916,-1.764008 6.40799,-3.708008 10.871994,-5.832001l0,0c-3.167999,2.483994 -5.903,4.68 -8.496002,6.587997c-2.664001,1.835999 -5.220001,2.447998 -6.839996,4.751999c-1.727997,2.268005 -3.455994,8.352005 -2.699997,8.927994c0.684998,0.396011 3.996002,-4.427994 7.164001,-5.867996c3.097,-1.511993 8.315994,-2.556 11.627991,-2.735992c3.20401,-0.216003 5.796997,0.251999 7.776001,1.547989l0,0c-7.632004,-0.143997 -13.319992,0.504013 -17.459991,1.944c-4.104004,1.476013 -5.616013,4.968002 -7.020004,6.588013c-1.584,1.511993 -1.261002,2.663986 -1.944,2.339996c-0.684998,-0.503998 -1.548004,-2.087997 -2.304001,-5.040009l0,0z"/>
  <path fill-rule="evenodd" stroke="black" stroke-width="0.036" stroke-miterlimit="10" id="path15" d="m159.210999,145.522995c2.087997,-2.195999 4.895996,-3.276001 8.425003,-2.951996c3.526993,0.287994 7.667999,1.692001 12.563004,4.5l0,0c-4.751999,-4.175995 -8.748001,-6.371994 -12.276001,-6.587997c-3.564011,-0.216003 -6.371002,1.332001 -8.712006,5.039993l0,0z"/>
  <path fill-rule="evenodd" stroke="black" stroke-width="0.036" stroke-miterlimit="10" id="path17" d="m156.511993,148.619003c6.155014,-0.828003 10.943008,-0.540009 14.76001,1.151993c3.815002,1.656006 6.227997,4.464005 7.774994,8.568008l0,0c-5.18399,-4.104004 -9.358994,-6.912003 -13.21199,-8.568008c-3.815002,-1.692001 -6.876007,-1.979996 -9.323013,-1.151993l0,0z"/>
  <path fill-rule="evenodd" stroke="black" stroke-width="0.036" stroke-miterlimit="10" id="path19" d="m136.783005,132.419006c-0.216003,-2.988007 -1.62001,-6.300003 -4.643997,-10.080009c-3.024002,-3.779999 -7.380005,-7.919998 -13.212006,-12.419998l0,0c5.362999,5.543999 9.322998,10.152 12.419998,13.968002c2.988007,3.743996 4.753006,6.588005 5.436005,8.532005l0,0z"/>
  <path fill-rule="evenodd" stroke="black" stroke-width="0.036" stroke-miterlimit="10" id="path21" d="m134.298996,134.542999c-1.403,-4.716003 -3.778992,-8.388 -7.415993,-11.015999c-3.636002,-2.699997 -8.388,-4.248001 -14.256004,-4.788002l0,0c3.672005,0.972 7.164001,2.736 10.872002,5.436005c3.564003,2.627998 7.163994,6.084 10.799995,10.367996l0,0z"/>
  <path fill-rule="evenodd" stroke="black" stroke-width="0.036" stroke-miterlimit="10" id="path23" d="m131.600006,137.783005c-1.944,-4.212006 -4.717003,-7.272003 -8.31601,-9.180008c-3.671997,-1.978996 -8.099998,-2.807999 -13.427994,-2.483994l0,0c4.967995,1.152 9.106995,2.664001 12.814995,4.679993c3.673004,1.980011 6.517006,4.212006 8.929008,6.984009l0,0z"/>
  <path fill-rule="evenodd" stroke="black" stroke-width="0.036" stroke-miterlimit="10" id="path25" d="m130.735001,141.382996c-2.304001,-3.491989 -5.183998,-5.687988 -8.639999,-7.127991c-3.528,-1.368011 -7.487999,-1.800003 -12.167999,-1.152008l0,0c3.994995,0.863998 7.738998,2.160004 11.230995,3.492004c3.493004,1.296005 6.589005,3.024002 9.577003,4.787994l0,0z"/>
  <path fill="white" fill-rule="evenodd" stroke="black" stroke-width="0.036" stroke-miterlimit="10" id="path47" d="m114.968002,196.102997c-0.576004,-3.095993 -0.576004,-5.472 0,-6.983994c0.539001,-1.656006 1.943001,-4.104004 3.096001,-2.339996c0.972,1.835999 1.871994,11.663986 3.096001,12.815994c1.151993,0.899994 2.627998,-7.811996 3.887993,-6.984009c1.116005,0.720001 1.836006,10.656006 3.133003,11.628006c1.296005,0.900009 3.132004,-6.947998 4.248001,-6.192001c0.972,0.720001 0.143997,10.188004 1.548004,10.475998c1.29599,0.180008 4.715988,-9.863998 6.227997,-9.32399c1.403992,0.539993 1.115997,11.411987 2.339996,12.059998c1.080002,0.32399 3.456009,-9.863998 4.645004,-9.324005c1.151001,0.468002 1.007996,12.240005 2.339996,12.81601c1.296005,0.539993 4.031998,-9.792007 5.436005,-9.324005c1.188004,0.468002 1.043991,11.880005 2.341003,12.024002c1.259995,-0.036011 4.139999,-12.419998 5.435989,-12.024002c1.115997,0.324005 0.28801,13.679993 1.944,13.968002c1.727997,0.035995 6.012009,-12.708008 8.136002,-12.81601c1.979004,0.036011 2.124008,12.779999 3.888,12.81601c1.656006,-0.108002 3.996002,-13.212006 6.192001,-13.212006c2.123993,-0.072006 4.572006,12.348007 6.227997,12.815994c1.513,0.252014 1.62001,-10.403992 3.097,-10.871994c1.403,-0.468002 3.671997,8.136002 5.436005,7.776001c1.692001,-0.612 2.412003,-11.087997 4.679993,-10.871994c2.23201,0.143997 6.841003,12.059998 8.532013,12.023987c1.47699,-0.179993 -0.576004,-11.771988 0.791992,-12.419998c1.404007,-0.755997 5.615997,8.891998 7.380005,8.532013c1.547989,-0.576004 0.647995,-10.404007 2.304993,-10.872009c1.62001,-0.360001 5.651001,8.928009 7.378998,8.568008c1.585007,-0.612 2.412003,-4.356003 2.341003,-11.664001l0,0c1.151001,4.535995 2.195007,8.243988 2.735001,11.26799c0.540009,2.988007 2.412003,6.624008 0.755997,6.587997c-1.835999,-0.287994 -9.106995,-8.567993 -11.26799,-7.73999c-2.052002,0.899994 -0.576004,11.735992 -1.548004,12.779999c-1.223999,0.755997 -4.139999,-7.848007 -5.436005,-7.343994c-1.224991,0.539993 -0.612,10.187988 -2.339996,10.475998c-1.979996,0.035995 -7.093002,-9.863998 -8.929001,-9.720001c-1.908005,0.216003 -0.287994,9.863998 -1.942993,10.475998c-1.80101,0.251999 -5.940002,-8.423996 -8.137009,-8.136002c-2.231003,0.360001 -2.916,10.007996 -4.679993,10.080002c-1.728012,-0.180008 -3.240005,-10.475998 -5.796005,-10.475998c-2.843994,0 -7.884003,10.29599 -10.115997,10.475998c-2.124008,0.035995 -1.223999,-9.755997 -2.699997,-10.080002c-1.69101,-0.468002 -5.220001,7.811996 -6.983002,7.776001c-1.692001,-0.143997 -1.944,-7.955994 -3.528,-8.171997c-1.872009,-0.251999 -5.867996,6.623993 -6.984009,6.587997c-1.187988,-0.251999 1.116013,-6.731995 0.396011,-7.380005c-0.828003,-0.68399 -2.844009,4.5 -4.645004,3.888c-1.764008,-0.720001 -4.354996,-7.559998 -5.832001,-7.73999c-1.548004,-0.144012 -2.662994,6.911987 -3.490997,6.587997c-0.936996,-0.576004 -0.792007,-8.171997 -1.944,-9.324005c-1.296005,-1.044006 -4.17601,3.059998 -5.436005,2.736008c-1.296997,-0.540009 -1.151993,-4.572006 -2.341003,-5.436005c-1.332001,-0.936005 -3.095993,-0.684006 -5.435997,0.360001l0,0c-1.944,-0.720001 -3.708,-1.872009 -5.436996,-3.852005c-1.803001,-1.979996 -3.387001,-4.571991 -5.042,-7.776001l0,0z"/>
  <path fill="white" fill-rule="evenodd" stroke="black" stroke-width="0.036" stroke-miterlimit="10" id="path49" d="m245.431,195.311005c-0.826996,-2.087997 -0.610992,-3.20401 0.792007,-3.492004c1.403992,-0.287994 6.264999,2.772003 7.380997,1.944c0.862991,-1.080002 -2.988007,-6.552002 -1.549011,-7.380005c1.404007,-0.828003 8.748016,3.600006 10.080017,2.736008c1.187988,-0.972 -3.02301,-7.307999 -2.339996,-8.171997c0.684998,-0.900009 5.759979,3.707993 6.623993,2.735992c0.755981,-1.115997 -1.944,-7.667999 -1.584015,-8.964005c0.287994,-1.367996 2.880005,2.59201 3.888,1.188004c0.937012,-1.440002 1.584015,-4.679993 1.944,-9.720001l0,0c0.64801,3.348007 1.044006,6.624008 1.188019,10.115997c0.106995,3.420013 0.574982,8.67601 -0.395996,10.476013c-1.152008,1.691986 -4.572021,-1.404007 -5.832001,-0.396011c-1.296021,0.828003 -0.144012,5.220001 -1.548004,5.832001c-1.548004,0.503998 -6.40802,-3.563995 -7.380005,-2.339996c-0.973007,1.223999 -0.503998,4.464005 1.548004,9.720001l0,0c-2.521011,-0.360001 -4.896011,-0.828003 -6.984009,-1.548004c-2.231995,-0.755997 -4.031998,-1.619995 -5.832001,-2.735992l0,0z"/>
  <path fill="white" fill-rule="evenodd" stroke="black" stroke-width="0.036" stroke-miterlimit="10" id="path51" d="m263.683014,201.934998c-2.808014,0.720001 -6.300018,0.720001 -10.476013,0c-4.391998,-0.863998 -11.628006,-4.175995 -14.759995,-4.679993c-3.024002,-0.576004 -3.81601,-1.728012 -3.492004,1.547989c0.179993,3.276001 3.671997,12.276001 4.643997,17.856003c0.828003,5.436005 -0.251999,12.024002 0.792007,14.76001c0.936996,2.627991 1.548996,3.167999 5.436996,0.791992c3.888,-2.556 9.791992,-7.595993 17.855011,-15.552002l0,0c-8.640015,4.824005 -14.327011,7.596008 -17.063019,8.171997c-2.807999,0.540009 -2.916,-2.627991 0.360001,-4.643997c3.312012,-2.160004 15.119003,-5.363998 19.043991,-7.37999c3.672028,-1.980011 3.815002,-2.484009 3.491028,-4.284012c-0.396027,-1.835999 -2.340027,-4.031998 -5.832001,-6.587997l0,0z"/>
  <path fill-rule="evenodd" stroke="black" stroke-width="0.036" stroke-miterlimit="10" id="path53" d="m260.19101,207.371002c-0.64801,-0.540009 -5.977005,-1.080002 -9.324005,-1.188004c-3.528,-0.216003 -9.28801,-0.179993 -10.477005,0.395996c-1.115005,0.540009 2.124008,2.59201 3.889008,3.096008c1.655991,0.395996 4.5,-0.324005 6.190994,-0.360001c1.619995,-0.143997 1.764999,-0.180008 3.492004,-0.395996c1.620987,-0.360001 6.66098,-1.152008 6.229004,-1.548004l0,0z"/>
  <path fill="white" fill-rule="evenodd" stroke="black" stroke-width="0.036" stroke-miterlimit="10" id="path55" d="m264.834991,199.990997c-0.791992,-1.944 -0.216003,-4.931992 1.584015,-6.623993c1.691986,-1.764008 5.652008,-3.708008 8.531982,-3.492004c2.736023,0.143997 5.976013,2.772003 7.775024,4.679993c1.655975,1.908005 3.203979,4.104004 2.304993,6.588013c-1.044006,2.339996 -5.832001,6.695999 -8.136017,7.37999c-2.411987,0.468002 -3.852997,-2.447998 -5.832001,-3.888c-2.159973,-1.475998 -5.399994,-2.843994 -6.227997,-4.643997l0,0z"/>
  <path fill="white" fill-rule="evenodd" stroke="black" stroke-width="0.036" stroke-miterlimit="10" id="path57" d="m283.087006,190.270996c-0.036011,-0.216003 0.612,-1.763992 1.944,-4.643997c1.332001,-3.095993 4.247986,-9.216003 5.832001,-12.815994c1.332001,-3.600006 1.548004,-7.524002 2.734985,-8.171997c1.080017,-0.64801 2.484009,1.655991 4.64502,4.283997c2.160004,2.519989 5.003998,7.991989 8.531982,10.871994c3.455994,2.772003 9.791992,3.744003 12.059998,5.832001c2.052002,1.944 2.484009,4.932007 0.756012,6.192001c-1.764008,1.115997 -6.660004,-0.539993 -11.231018,1.151993c-4.823975,1.656006 -13.355988,7.884003 -16.703979,8.964005c-3.313019,0.936005 -4.175995,-0.108002 -2.735992,-3.132004l0,0c6.695984,-3.707993 10.403992,-6.299988 11.268982,-7.37999c0.756012,-1.188004 -5.256989,1.115997 -6.229004,0.395996c-1.079987,-0.936005 1.368011,-5.255997 0.395996,-5.039993c-1.115997,0.360001 -4.247986,6.299988 -6.191986,6.983994c-1.980988,0.539993 -3.528992,-0.576004 -5.076996,-3.492004l0,0z"/>
  <path fill="white" fill-rule="evenodd" stroke="black" stroke-width="0.036" stroke-miterlimit="10" id="path59" d="m283.087006,209.315002c5.615997,-3.132004 12.348999,-4.895996 20.59198,-5.436005c8.208008,-0.612 17.532013,0.28801 28.368011,2.304001l0,0c-6.839996,0.936005 -12.671997,3.348007 -17.496002,7.380005c-4.932007,4.031998 -8.675995,9.503998 -11.627991,16.703995l0,0c-4.140015,-4.104004 -8.063019,-7.595993 -12.059998,-10.475998c-3.996002,-2.988007 -10.368011,-5.220001 -11.628021,-6.983994c-1.259979,-1.764008 -0.107971,-2.880005 3.85202,-3.492004l0,0z"/>
  <path fill="white" fill-rule="evenodd" stroke="black" stroke-width="0.036" stroke-miterlimit="10" id="path61" d="m272.214996,213.167007c1.872009,5.399994 2.988007,11.26799 3.889008,17.891998c0.791992,6.623993 1.151001,14.903992 0.791992,21.347992c-0.468994,6.336014 -1.583984,11.591995 -3.492004,16.307999l0,0c-3.384003,-7.415985 -8.171997,-12.600006 -14.760986,-15.552002c-6.623001,-2.951996 -14.651001,-3.815994 -24.479004,-2.304001l0,0c3.203995,-6.587997 6.011993,-10.944 8.567993,-13.21199c2.556,-2.304001 4.751999,-0.540009 6.588013,-0.395996c1.690994,0.107986 1.187988,3.095993 3.491989,1.187988c2.195007,-2.159988 6.406998,-8.927994 9.720016,-13.21199c3.274994,-4.212006 6.371002,-8.279999 9.682983,-12.059998l0,0z"/>
  <path fill-rule="evenodd" stroke="black" stroke-width="0.036" stroke-miterlimit="10" id="path65" d="m53.623001,234.910995c-5.688,-13.82399 -9.360001,-25.019989 -10.872002,-34.164001c-1.548,-9.179993 0.035999,-15.119995 1.548,-20.195999c1.403999,-5.147995 4.104,-10.259995 6.984001,-10.475998c2.843998,-0.360001 6.155998,2.484009 10.079998,8.531998l0,0c4.571999,-4.463989 8.459999,-6.479996 11.664001,-6.192001c3.131996,0.180008 7.019997,2.952011 7.379997,7.776001c0.288002,4.860001 -1.007996,11.664001 -5.435997,20.952011c-4.535004,9.251999 -11.556,20.231995 -21.348,33.76799l0,0z"/>
  <path fill="white" fill-rule="evenodd" stroke="black" stroke-width="0.036" stroke-miterlimit="10" id="path67" d="m53.623001,230.662994c-4.319,-13.103989 -7.128002,-23.363998 -8.568001,-31.463989c-1.439999,-8.064011 -1.260002,-12.240005 0,-16.70401c1.116001,-4.608002 4.32,-10.511993 6.984001,-10.475998c2.627998,-0.035995 5.437,3.456009 8.567997,10.475998l0,0c5.976002,-5.543991 10.224003,-8.207993 13.175999,-8.136002c2.736,0.108002 3.853004,4.428009 3.888,8.532013c0.071999,3.888 0.396004,7.127991 -3.490997,15.155991c-4.069,8.100006 -10.872002,18.64801 -20.556999,32.615997l0,0z"/>
  <path fill-rule="evenodd" stroke="black" stroke-width="0.036" stroke-miterlimit="10" id="path87" d="m124.291,304.031006c-7.092003,-7.776001 -11.879997,-16.957001 -14.362999,-27.937012c-2.556999,-11.195984 -4.392998,-30.059998 -0.792,-37.692001c3.562996,-7.595993 17.099998,-8.567993 22.139999,-7.37999c4.931992,1.151993 7.343994,5.903992 7.380005,14.399994l0,0c7.595993,-6.40799 13.931992,-9.468002 19.007996,-9.720001c4.968002,-0.251999 10.944,1.440002 11.268997,8.531998c0.216003,7.128006 -2.268997,23.220016 -9.684998,33.408005c-7.524002,9.972992 -19.044998,18.720001 -34.957001,26.389008l0,0z"/>
  <path fill-rule="evenodd" stroke="black" stroke-width="0.036" stroke-miterlimit="10" id="path91" d="m176.311996,239.591003c-2.123993,15.552002 -3.707993,28.764008 -5.039993,40.751984c-1.367996,11.844025 -2.23201,21.636017 -2.736008,29.916016l0,0c2.340012,-14.507996 4.104004,-27.360016 5.437012,-39.23999c1.257996,-11.916016 2.08699,-22.212006 2.338989,-31.428009l0,0z"/>
  <path fill-rule="evenodd" stroke="black" stroke-width="0.036" stroke-miterlimit="10" id="path93" d="m180.955002,239.195007c-2.124008,15.515991 -3.708008,28.835999 -5.040009,40.787994c-1.29599,11.878998 -2.194992,21.563995 -2.699997,29.878998l0,0c2.341003,-14.544006 4.104004,-27.287994 5.436996,-39.20401c1.295013,-11.914978 2.015015,-22.174988 2.303009,-31.462982l0,0z"/>
  <path fill-rule="evenodd" stroke="black" stroke-width="0.036" stroke-miterlimit="10" id="path95" d="m170.119003,324.622986c-2.087997,22.392029 -3.779999,41.76001 -5.076004,58.932007c-1.296005,17.063995 -2.194992,31.320007 -2.699005,43.200012l0,0c2.340012,-20.916016 4.104004,-39.528015 5.436005,-56.664001c1.259003,-17.136017 2.087006,-32.112 2.339005,-45.468018l0,0z"/>
  <path fill-rule="evenodd" stroke="black" stroke-width="0.036" stroke-miterlimit="10" id="path97" d="m165.835007,321.923004c-2.124008,22.428009 -3.708008,41.687988 -5.040009,58.895996c-1.367004,17.063995 -2.231003,31.320007 -2.735001,43.200012l0,0c2.339996,-20.916016 4.104004,-39.527008 5.436005,-56.664001c1.259003,-17.171997 2.08699,-32.041016 2.339005,-45.432007l0,0z"/>
  <path fill-rule="evenodd" stroke="black" stroke-width="0.036" stroke-miterlimit="10" id="path99" d="m84.294998,304.427002c16.380005,-0.108002 31.465004,0.720001 45.828003,2.339996c14.363998,1.619995 27.287994,4.032013 39.600998,7.380005l0,0c-24.479996,-2.808014 -43.487999,-4.968018 -57.852997,-6.623993c-14.292,-1.692017 -23.435005,-2.628021 -27.576004,-3.096008l0,0z"/>
  <path fill-rule="evenodd" stroke="black" stroke-width="0.036" stroke-miterlimit="10" id="path101" d="m173.972,312.959015c16.380005,-0.108002 31.464005,0.719971 45.826996,2.339996c14.363998,1.619995 27.28801,4.031982 39.600998,7.379974l0,0c-24.479996,-2.807983 -43.487991,-5.003998 -57.852997,-6.587982c-14.291992,-1.656006 -23.436005,-2.700012 -27.574997,-3.131989l0,0z"/>
  <path fill-rule="evenodd" stroke="black" stroke-width="0.036" stroke-miterlimit="10" id="path103" d="m173.972,317.639008c16.380005,-0.106995 31.464005,0.720001 45.826996,2.339996c14.363998,1.619995 27.28801,4.031982 39.600998,7.380005l0,0c-24.479996,-2.808014 -43.487991,-4.968018 -57.852997,-6.624023c-14.291992,-1.691986 -23.436005,-2.628998 -27.574997,-3.095978l0,0z"/>
  <path fill-rule="evenodd" stroke="black" stroke-width="0.036" stroke-miterlimit="10" id="path105" d="m191.863007,308.313995c-6.012009,-7.559998 -9.684006,-13.932007 -10.872009,-19.403992c-1.188004,-5.507996 0.755997,-11.627991 3.492004,-13.212006c2.591995,-1.619995 6.552002,-0.503998 12.022995,3.492004l0,0c2.880997,-3.384003 5.725006,-4.716003 8.531998,-4.283997c2.772003,0.432007 7.488007,3.600006 8.172012,6.984009c0.647995,3.347992 -0.828003,8.315979 -4.283005,12.815979c-3.671997,4.464996 -9.180008,8.820007 -17.063995,13.608002l0,0z"/>
  <path fill-rule="evenodd" stroke="black" stroke-width="0.036" stroke-miterlimit="10" id="path109" d="m100.207001,376.28299c-6.012001,-7.632996 -9.683998,-13.968994 -10.872002,-19.440002c-1.187996,-5.543976 0.756004,-11.556 3.492004,-13.175995c2.591995,-1.619995 6.551994,-0.503998 12.023994,3.492004l0,0c2.952003,-3.38501 5.760002,-4.71701 8.567001,-4.283997c2.808998,0.432007 7.416,3.600006 8.137001,6.983002c0.611,3.348999 -0.757004,8.31601 -4.248001,12.81601c-3.599998,4.464996 -9.250999,8.820984 -17.099998,13.608978l0,0z"/>
  <path fill-rule="evenodd" stroke="black" stroke-width="0.036" stroke-miterlimit="10" id="path111" d="m137.106995,351.407013c-6.011993,-7.561005 -9.684998,-13.933014 -10.871994,-19.404022c-1.188004,-5.507996 0.755997,-11.627991 3.492004,-13.212006c2.591995,-1.619995 6.552002,-0.503998 12.022995,3.492004l0,0c2.880005,-3.312988 5.725006,-4.681 8.531998,-4.247986c2.772003,0.432007 7.488007,3.600006 8.171997,6.983002c0.64801,3.348999 -0.827988,8.31601 -4.283997,12.81601c-3.671005,4.464996 -9.179001,8.855988 -17.063004,13.572998l0,0z"/>
  <path fill="white" fill-rule="evenodd" stroke="black" stroke-width="0.036" stroke-miterlimit="10" id="path113" d="m150.720001,291.311005c-4.932999,-6.156006 -7.884995,-11.376007 -8.856003,-15.804016c-0.972,-4.53598 0.576004,-9.467987 2.843994,-10.763977c2.160004,-1.404022 5.292007,-0.324005 9.828003,2.843994l0,0c2.304001,-2.700012 4.716003,-3.852997 6.947998,-3.455994c2.231003,0.359985 6.012009,2.951996 6.624008,5.687988c0.503998,2.700012 -0.647995,6.731995 -3.456009,10.440002c-2.988998,3.598999 -7.488998,7.235992 -13.931992,11.052002l0,0z"/>
  <path fill-rule="evenodd" stroke="black" stroke-width="0.036" stroke-miterlimit="10" id="path115" d="m127.388,411.598999c-6.013,-7.559998 -9.684998,-13.932007 -10.872002,-19.403992c-1.187996,-5.507996 0.756004,-11.628021 3.491005,-13.212006c2.592995,-1.619995 6.552994,-0.503998 12.024002,3.492004l0,0c2.951996,-3.312012 5.759995,-4.679993 8.567993,-4.248016c2.807999,0.433014 7.416,3.601013 8.136002,6.984009c0.612,3.347992 -0.755997,8.315002 -4.248001,12.815002c-3.598999,4.464996 -9.251999,8.856995 -17.098999,13.572998l0,0z"/>
  <path fill="white" fill-rule="evenodd" stroke="black" stroke-width="0.036" stroke-miterlimit="10" id="path117" d="m142.035004,350.502991c-4.932007,-6.156006 -7.884003,-11.375977 -8.855011,-15.803986c-0.972992,-4.536011 0.575012,-9.468994 2.844009,-10.765015c2.051987,-1.402985 5.363998,-0.324005 9.791992,2.844025l0,0c2.340012,-2.735016 4.60701,-3.85202 6.948013,-3.491028c2.303986,0.359009 6.047989,2.916016 6.658997,5.723999c0.50499,2.736023 -0.611008,6.660004 -3.490997,10.404022c-2.989014,3.635986 -7.489014,7.199982 -13.897003,11.087982l0,0z"/>
  <path fill-rule="evenodd" stroke="black" stroke-width="0.036" stroke-miterlimit="10" id="path119" d="m76.663002,343.666992c-3.060005,-7.127991 -4.428001,-12.600983 -4.248001,-17.100983c0.215996,-4.46402 2.987999,-8.675995 5.400002,-9.322998c2.304001,-0.721008 5.075996,1.043976 8.459999,5.147003l0,0c2.951996,-1.90802 5.292,-2.448029 7.416,-1.476013c2.051994,0.971985 4.895996,4.247986 4.787994,7.056c-0.215996,2.735992 -2.375999,6.119995 -5.939995,8.891998c-3.744003,2.664001 -8.891998,4.787994 -15.875999,6.804993l0,0z"/>
  <path fill-rule="evenodd" stroke="black" stroke-width="0.036" stroke-miterlimit="10" id="path121" d="m54.126999,389.098999c-2.987,-7.127991 -4.535999,-12.600006 -4.247997,-17.100006c0.181,-4.463989 3.060997,-8.677002 5.437,-9.324005c2.303997,-0.720001 5.075996,1.044006 8.459999,5.147003l0,0c2.807999,-1.906982 5.400002,-2.446991 7.379997,-1.475983c1.944,0.971985 4.968002,4.247986 4.788002,7.056c-0.216003,2.735992 -2.375999,6.119995 -5.940002,8.893005c-3.743996,2.664001 -8.892998,4.787994 -15.876999,6.803986l0,0z"/>
  <path fill-rule="evenodd" stroke="black" stroke-width="0.036" stroke-miterlimit="10" id="path123" d="m185.238998,230.266998l21.384003,-1.944l0,0c1.584,7.091995 1.835999,12.563995 0.755997,17.100006c-1.11499,4.356003 -3.526993,7.451996 -7.380005,9.287994l0,0c-4.535995,-3.276001 -8.026993,-6.768005 -10.475998,-10.871994c-2.519989,-4.17601 -3.85199,-8.568008 -4.283997,-13.572006l0,0z"/>
  <path fill-rule="evenodd" stroke="black" stroke-width="0.036" stroke-miterlimit="10" id="path125" d="m259.398987,286.571014c-3.060974,-3.060028 -5.903992,-4.608002 -8.928986,-5.040009c-3.096008,-0.432007 -7.416,-0.179993 -8.927994,2.699982c-1.656006,2.844025 -2.124008,8.748016 0,13.968018c2.087997,5.039001 6.40799,10.438995 12.815994,16.343994l0,0c2.664001,-0.433014 5.075989,-2.772003 7.380005,-7.020996c2.230988,-4.319 4.35498,-10.476013 6.227997,-18.612l0,0l-7.380005,2.303986l0,0c-0.394989,-1.546997 -0.790985,-3.095001 -1.187012,-4.642975l0,0z"/>
  <path fill-rule="evenodd" stroke="black" stroke-width="0.036" stroke-miterlimit="10" id="path127" d="m271.062988,353.747009c0.827026,-2.736023 0.144012,-5.364014 -2.341003,-8.171997c-2.556,-2.916016 -7.811981,-7.236023 -12.419983,-8.532013c-4.680008,-1.368011 -11.195007,-1.47699 -15.119995,0.791992c-3.99501,2.304016 -6.804001,6.479004 -8.567001,12.815002l0,0c-7.236008,-10.151001 -13.824005,-15.803986 -20.195999,-17.100006c-6.516006,-1.29599 -15.012009,2.736023 -17.855011,9.324005c-2.87999,6.516022 -5.832001,17.136017 1.151001,29.52002c7.093002,12.384003 20.412003,26.640991 40.78801,43.884003l0,0c6.084,-3.960022 11.268997,-7.848022 15.551987,-11.663025c4.248016,-3.888977 7.561005,-7.596985 10.080017,-11.268982l0,0c-3.239014,-4.355011 -5.003998,-8.712006 -5.436005,-13.212006c-0.576019,-4.644012 0.324005,-9.071991 2.699982,-13.571991c2.447998,-4.463013 6.192017,-8.602997 11.664001,-12.815002l0,0z"/>
  <path fill="white" fill-rule="evenodd" stroke="black" stroke-width="0.036" stroke-miterlimit="10" id="path129" d="m331.651001,375.131012c-0.64801,-0.756012 -4.644989,2.195984 -12.528015,9.143982c-7.991974,6.947998 -19.187988,17.459991 -34.415985,32.076019l0,0c-7.992004,-5.508026 -13.932007,-10.584015 -18.252014,-15.768005c-4.319977,-5.292023 -5.939972,-10.765015 -7.343994,-15.048004c-1.583984,-4.283997 -1.835999,-6.912018 -1.440002,-10.403992c0.395996,-3.708008 1.584015,-7.884003 3.960022,-10.729004c2.268982,-2.987 6.371979,-6.19101 9.828003,-6.119019c3.383972,0.144012 6.983978,3.455017 10.403992,7.164001c3.23999,3.563019 8.675995,9.322998 9.503998,14.363007c0.68399,4.933014 -2.269012,12.276001 -4.679993,15.229004c-2.484009,2.843994 -6.120026,2.880005 -9.64801,1.764008c-3.671997,-1.332001 -9.287994,-5.112 -11.304016,-9.108002c-1.97998,-4.031006 -0.791992,-11.59201 -0.181,-14.903015c0.576019,-3.492004 1.729004,-5.291992 3.744019,-5.544006c1.835999,-0.323975 5.436981,1.69101 7.884003,3.960022c2.304993,2.230988 6.083984,5.651001 6.47998,9.143982c0.252014,3.456024 -2.159973,10.115997 -4.319977,11.088013c-2.231018,0.684998 -7.056,-3.924011 -8.783997,-6.442993c-1.836029,-2.557007 -2.231018,-7.272003 -1.764008,-8.604004c0.432007,-1.296021 3.131989,-0.972015 4.644989,0.540009c1.403015,1.29599 3.778992,7.056 3.924011,7.703979c-0.072021,0.540009 -2.59201,-3.888 -3.384003,-3.959991c-0.757019,-0.071991 -1.656006,1.979004 -0.899994,3.23999c0.720001,1.007996 4.247986,3.996002 5.18399,3.420013c0.721008,-0.612 0.64801,-4.64502 -0.359009,-6.839996c-1.225006,-2.305023 -3.959991,-6.013 -5.725006,-6.805023c-1.727997,-0.935974 -3.671997,0.072021 -4.28299,1.620026c-0.721008,1.440002 -0.791992,4.53598 0.359009,7.343994c1.115997,2.735992 4.283997,7.199982 6.444,8.964996c2.052002,1.618988 4.212006,2.088013 6.083984,0.720001c1.872009,-1.511993 4.5,-6.192017 4.824005,-9.324005c0.144012,-3.276001 -1.548981,-6.515991 -3.563995,-9.324005c-2.123993,-2.770996 -6.156006,-5.938995 -8.783997,-7.164001c-2.735016,-1.332001 -5.399017,-2.194977 -7.164001,-0.358978c-1.872009,1.90799 -3.059998,7.487 -3.420013,11.483002c-0.395996,3.924988 -2.375977,7.163971 1.261017,11.80899c3.600006,4.571991 10.26001,9.720001 20.268005,15.587982l0,0c11.195984,-9.612 20.411987,-16.560974 28.475983,-21.671997c7.919006,-5.042999 14.147003,-7.742981 18.971008,-8.246979l0,0z"/>
  <path fill="white" fill-rule="evenodd" stroke="black" stroke-width="0.036" stroke-miterlimit="10" id="path137" d="m358.830994,398.386993c-5.544006,3.024017 -9.899994,6.300018 -13.212006,10.115997c-3.419983,3.671997 -6.263977,7.992004 -6.587982,12.420013c-0.433014,4.428009 1.115997,9.828003 4.643982,13.967987c3.456024,4.068024 8.893005,7.309021 16.309021,10.115997l0,0c-7.740021,-6.119995 -12.528015,-11.951996 -14.364014,-17.496002c-1.90799,-5.759979 0.791992,-11.015991 3.096008,-15.911987c2.230988,-4.895996 5.471985,-9.252014 10.11499,-13.212006l0,0z"/>
 </g>
</svg>
